# xmcd CD database file
#
# Track frame offsets:
#	150
#	16366
#	28969
#	40228
#	53334
#	67800
#	84846
#	102343
#	118320
#	133205
#	146241
#	159788
#	171333
#	183562
#	197064
#
# Disc length: 2864 seconds
#
# Revision: 0
# Processed by: cddbd v1.5.1PL0 Copyright (c) Steve Scherf et al.
# Submitted via: CDex 1.50
#
DISCID=ce0b2e0f
DTITLE=Ray Charles - Ray Charles (Stars Vintage)
DYEAR=2004
DGENRE=Blues
TTITLE0=Georgia On my Mind
TTITLE1=My Heart Cries For You
TTITLE2=I Don't Need A Doctor
TTITLE3=Cryin' Time
TTITLE4=Born To Lose
TTITLE5=If You Were Mine
TTITLE6=Careless Love
TTITLE7=Your Cheatin' Heart
TTITLE8=Smack Dab In The Middle
TTITLE9=Let's Go Get Stoned
TTITLE10=Chattanooga Choo Choo
TTITLE11=Don't Set Me Free
TTITLE12=Unchain My Heart
TTITLE13=Moonlight In Vermont
TTITLE14=You'll Never Walk Alone
EXTD=YEAR: 2004
EXTT0=
EXTT1=
EXTT2=
EXTT3=
EXTT4=
EXTT5=
EXTT6=
EXTT7=
EXTT8=
EXTT9=
EXTT10=
EXTT11=
EXTT12=
EXTT13=
EXTT14=
PLAYORDER=
